<svg xmlns="http://www.w3.org/2000/svg" viewBox="0 0 1600 900" width="1600" height="900" preserveAspectRatio="xMidYMid slice" role="img" aria-label="Погрузчик загружает паллету с гофроупаковкой в фуру">
  <title>Отгрузка: погрузчик заводит паллету с гофротарой в прицеп</title>
  <defs>
  <linearGradient id="air" x1="0" y1="0" x2="0" y2="1">
    <stop offset="0" stop-color="#16232F"/><stop offset=".24" stop-color="#354B5E"/>
    <stop offset=".42" stop-color="#8CA3B5"/><stop offset=".52" stop-color="#DCE6EE"/>
    <stop offset="1" stop-color="#9DB0BE"/>
  </linearGradient>
  <linearGradient id="conc" x1="0" y1="0" x2="0" y2="1">
    <stop offset="0" stop-color="#8593A0"/><stop offset=".5" stop-color="#59667A"/>
    <stop offset="1" stop-color="#2C3742"/>
  </linearGradient>
  <linearGradient id="belt" x1="0" y1="0" x2="0" y2="1">
    <stop offset="0" stop-color="#7C8B99"/><stop offset="1" stop-color="#39434E"/>
  </linearGradient>
  <linearGradient id="doorL" x1="0" y1="0" x2="1" y2="0">
    <stop offset="0" stop-color="#08355F"/><stop offset=".72" stop-color="#0D4A85"/>
    <stop offset="1" stop-color="#1568B6"/>
  </linearGradient>
  <linearGradient id="doorR" x1="0" y1="0" x2="1" y2="0">
    <stop offset="0" stop-color="#1568B6"/><stop offset=".3" stop-color="#0D4A85"/>
    <stop offset="1" stop-color="#08355F"/>
  </linearGradient>
  <linearGradient id="lintel" x1="0" y1="0" x2="0" y2="1">
    <stop offset="0" stop-color="#1568B6"/><stop offset="1" stop-color="#08355F"/>
  </linearGradient>
  <pattern id="rib" width="46" height="40" patternUnits="userSpaceOnUse">
    <rect width="46" height="40" fill="none"/>
    <rect x="0"  width="15" height="40" fill="#000" opacity=".30"/>
    <rect x="15" width="4"  height="40" fill="#000" opacity=".14"/>
    <rect x="27" width="7"  height="40" fill="#FFF" opacity=".15"/>
    <rect x="34" width="3"  height="40" fill="#FFF" opacity=".07"/>
  </pattern>
  <pattern id="flute" width="7" height="7" patternUnits="userSpaceOnUse">
    <rect width="7" height="7" fill="none"/>
    <rect x="0" width="3" height="7" fill="#000" opacity=".18"/>
  </pattern>
  <linearGradient id="gate" x1="0" y1="0" x2="0" y2="1">
    <stop offset="0" stop-color="#FFFBF2"/><stop offset=".55" stop-color="#FFEFD2"/>
    <stop offset="1" stop-color="#FFD9A2"/>
  </linearGradient>
  <radialGradient id="glow" cx=".5" cy=".5" r=".5">
    <stop offset="0" stop-color="#FFF6E8" stop-opacity=".95"/>
    <stop offset=".55" stop-color="#FFE3BC" stop-opacity=".35"/>
    <stop offset="1" stop-color="#FFD9A8" stop-opacity="0"/>
  </radialGradient>
  <radialGradient id="warm" cx=".52" cy=".42" r=".62">
    <stop offset="0" stop-color="#E07B26" stop-opacity=".34"/>
    <stop offset=".62" stop-color="#E07B26" stop-opacity=".08"/>
    <stop offset="1" stop-color="#E07B26" stop-opacity="0"/>
  </radialGradient>
  <linearGradient id="vig" x1="0" y1="0" x2="0" y2="1">
    <stop offset="0" stop-color="#050A0F" stop-opacity=".44"/>
    <stop offset=".30" stop-color="#050A0F" stop-opacity="0"/>
    <stop offset=".70" stop-color="#050A0F" stop-opacity=".08"/>
    <stop offset="1" stop-color="#050A0F" stop-opacity=".58"/>
  </linearGradient>
  <linearGradient id="vigx" x1="0" y1="0" x2="1" y2="0">
    <stop offset="0" stop-color="#050A0F" stop-opacity=".55"/>
    <stop offset=".42" stop-color="#050A0F" stop-opacity="0"/>
    <stop offset="1" stop-color="#050A0F" stop-opacity=".38"/>
  </linearGradient>
</defs>
<rect x="0.0" y="0.0" width="1600.0" height="900.0" fill="url(#air)"/>
<polygon points="0.0,430.0 1600.0,430.0 1600.0,900.0 0.0,900.0" fill="url(#conc)"/>
<ellipse cx="760" cy="404" rx="640" ry="200" fill="url(#glow)" opacity=".7"/>
<rect x="0.0" y="0.0" width="1600.0" height="150.0" fill="#141E28" opacity="0.72"/>
<rect x="0.0" y="142.0" width="1600.0" height="12.0" fill="#E07B26" opacity="0.4"/>
<rect x="70.0" y="326.0" width="132.0" height="104.0" fill="#B9803F" opacity="0.26"/>
<rect x="70.0" y="326.0" width="132.0" height="14.6" fill="#D9A968" opacity="0.26"/>
<rect x="216.0" y="350.0" width="104.0" height="80.0" fill="#B9803F" opacity="0.26"/>
<rect x="216.0" y="350.0" width="104.0" height="11.2" fill="#D9A968" opacity="0.26"/>
<rect x="334.0" y="334.0" width="116.0" height="96.0" fill="#B9803F" opacity="0.26"/>
<rect x="334.0" y="334.0" width="116.0" height="13.4" fill="#D9A968" opacity="0.26"/>
<polygon points="1300.0,176.0 1600.0,239.5 1600.0,562.0 1300.0,606.0" fill="#A9B8C6"/>
<polygon points="1300.0,176.0 1600.0,239.5 1600.0,265.5 1300.0,206.0" fill="#D3DDE5"/>
<polygon points="1300.0,532.0 1600.0,562.0 1600.0,502.0 1300.0,606.0" fill="#78899A" opacity="0.8"/>
<polygon points="1300.0,514.0 1600.0,484.0 1600.0,500.0 1300.0,530.0" fill="#E07B26" opacity="0.75"/>
<polygon points="1300.0,176.0 1600.0,239.5 1600.0,562.0 1300.0,606.0" fill="#0A1420" opacity="0.12"/>
<rect x="900.0" y="176.0" width="400.0" height="430.0" fill="#A9B8C6"/>
<rect x="900.0" y="176.0" width="400.0" height="30.0" fill="#D3DDE5"/>
<rect x="900.0" y="532.0" width="400.0" height="74.0" fill="#78899A" opacity="0.85"/>
<rect x="900.0" y="514.0" width="400.0" height="18.0" fill="#E07B26" opacity="0.8"/>
<rect x="934.0" y="210.0" width="332.0" height="300.0" fill="#0D1721"/>
<rect x="944.0" y="260.0" width="100.0" height="250.0" fill="#B9803F" opacity="0.52"/>
<rect x="944.0" y="260.0" width="100.0" height="25.0" fill="#D9A968" opacity="0.52"/>
<rect x="944.0" y="490.0" width="100.0" height="20.0" fill="#6E4E23" opacity="0.55"/>
<rect x="1052.0" y="296.0" width="96.0" height="214.0" fill="#B9803F" opacity="0.52"/>
<rect x="1052.0" y="296.0" width="96.0" height="21.4" fill="#D9A968" opacity="0.52"/>
<rect x="1052.0" y="490.0" width="96.0" height="20.0" fill="#6E4E23" opacity="0.55"/>
<rect x="1156.0" y="274.0" width="102.0" height="236.0" fill="#B9803F" opacity="0.52"/>
<rect x="1156.0" y="274.0" width="102.0" height="23.6" fill="#D9A968" opacity="0.52"/>
<rect x="1156.0" y="490.0" width="102.0" height="20.0" fill="#6E4E23" opacity="0.55"/>
<rect x="934.0" y="210.0" width="332.0" height="300.0" fill="#050C14" opacity="0.4"/>
<rect x="934.0" y="210.0" width="332.0" height="66.0" fill="#050C14" opacity="0.5"/>
<polygon points="900.0,176.0 836.0,158.0 836.0,664.0 900.0,606.0" fill="#78899A"/>
<polygon points="900.0,176.0 836.0,158.0 836.0,176.0 900.0,192.0" fill="#D3DDE5" opacity="0.8"/>
<rect x="846.0" y="214.0" width="9.0" height="402.0" fill="#D3DDE5" opacity="0.5" rx="5"/>
<polygon points="1300.0,176.0 1340.0,186.0 1340.0,636.0 1300.0,606.0" fill="#78899A" opacity="0.9"/>
<rect x="900.0" y="606.0" width="700.0" height="26.0" fill="#141E28"/>
<rect x="924.0" y="668.0" width="330.0" height="26.0" fill="#22303C" opacity="1" rx="6"/>
<rect x="952.0" y="632.0" width="18.0" height="40.0" fill="#22303C"/>
<rect x="1200.0" y="632.0" width="18.0" height="40.0" fill="#22303C"/>
<rect x="930.0" y="668.0" width="24.0" height="26.0" fill="#E07B26" opacity="0.9"/>
<rect x="978.0" y="668.0" width="24.0" height="26.0" fill="#E07B26" opacity="0.9"/>
<rect x="1026.0" y="668.0" width="24.0" height="26.0" fill="#E07B26" opacity="0.9"/>
<rect x="1074.0" y="668.0" width="24.0" height="26.0" fill="#E07B26" opacity="0.9"/>
<rect x="1122.0" y="668.0" width="24.0" height="26.0" fill="#E07B26" opacity="0.9"/>
<rect x="1170.0" y="668.0" width="24.0" height="26.0" fill="#E07B26" opacity="0.9"/>
<rect x="1218.0" y="668.0" width="24.0" height="26.0" fill="#E07B26" opacity="0.9"/>
<circle cx="1386" cy="688" r="60" fill="#0E1821"/>
<circle cx="1386" cy="688" r="24" fill="#63788A" opacity=".8"/>
<circle cx="1516" cy="688" r="60" fill="#0E1821"/>
<circle cx="1516" cy="688" r="24" fill="#63788A" opacity=".8"/>
<ellipse cx="1230" cy="746" rx="330" ry="26" fill="#050A0F" opacity=".34"/>
<ellipse cx="540" cy="744" rx="200" ry="26" fill="#050A0F" opacity=".34"/>
<rect x="398.0" y="566.0" width="262.0" height="142.0" fill="#22303C" opacity="1" rx="10"/>
<rect x="398.0" y="566.0" width="262.0" height="20.0" fill="#63788A" opacity="0.4" rx="8"/>
<rect x="410.0" y="500.0" width="150.0" height="70.0" fill="#141E28" opacity="1" rx="8"/>
<g opacity=".55"><path d="M 498.6 551.2 L 506.0 462.4" fill="none" stroke="#F0B072" stroke-width="47.7" stroke-linecap="round" stroke-linejoin="round"/><circle cx="513.4" cy="435.0" r="18.6" fill="#F0B072"/><path d="M 517.8 471.3 L 550.4 486.1" fill="none" stroke="#F0B072" stroke-width="15.8" stroke-linecap="round" stroke-linejoin="round"/></g><path d="M 498.6 551.2 L 506.0 462.4" fill="none" stroke="#0F1A24" stroke-width="44.4" stroke-linecap="round" stroke-linejoin="round"/><circle cx="513.4" cy="435.0" r="17.0" fill="#0F1A24"/><path d="M 517.8 471.3 L 550.4 486.1" fill="none" stroke="#0F1A24" stroke-width="12.6" stroke-linecap="round" stroke-linejoin="round"/>
<rect x="416.0" y="404.0" width="22.0" height="166.0" fill="#22303C"/>
<rect x="632.0" y="404.0" width="22.0" height="166.0" fill="#22303C"/>
<rect x="404.0" y="386.0" width="262.0" height="22.0" fill="#22303C" opacity="1" rx="6"/>
<circle cx="535" cy="374" r="10" fill="#E07B26"/>
<circle cx="535" cy="374" r="24" fill="#E07B26" opacity=".30"/>
<rect x="660.0" y="352.0" width="22.0" height="372.0" fill="#22303C"/>
<rect x="686.0" y="366.0" width="16.0" height="358.0" fill="#22303C" opacity="0.75"/>
<circle cx="452" cy="702" r="46" fill="#0E1821"/>
<circle cx="452" cy="702" r="17" fill="#3B4C5A"/>
<circle cx="630" cy="710" r="38" fill="#0E1821"/>
<circle cx="630" cy="710" r="14" fill="#3B4C5A"/>
<rect x="700.0" y="596.0" width="210.0" height="13.0" fill="#63788A" opacity="0.9" rx="3"/>
<rect x="700.0" y="640.0" width="13.0" height="84.0" fill="#22303C" opacity="0.9"/>
<rect x="714.0" y="566.0" width="228.0" height="30.0" fill="#6E4E23"/>
<ellipse cx="828.0" cy="566.0" rx="125.4" ry="9.2" fill="#0A1119" opacity=".22"/><polygon points="716.0,434.0 722.7,427.3 722.7,547.5 716.0,566.0" fill="#8E5C27"/><polygon points="716.0,434.0 940.0,434.0 926.5,427.3 722.7,427.3" fill="#D9A968"/><polygon points="716.0,434.0 940.0,434.0 940.0,566.0 716.0,566.0" fill="#B9803F"/><line x1="828.0" y1="434.0" x2="824.6" y2="427.3" stroke="#7E5220" stroke-width="2.7" opacity=".5"/><rect x="716.0" y="434.0" width="224.0" height="132.0" fill="url(#flute)" opacity=".30"/><rect x="716.0" y="434.0" width="224.0" height="21.1" fill="#FFFFFF" opacity="0.1"/>
<ellipse cx="820.0" cy="434.0" rx="113.1" ry="8.5" fill="#0A1119" opacity=".22"/><polygon points="719.0,312.0 725.4,316.3 725.4,427.3 719.0,434.0" fill="#9C6C32"/><polygon points="719.0,312.0 921.0,312.0 909.2,316.3 725.4,316.3" fill="#E4BA80"/><polygon points="719.0,312.0 921.0,312.0 921.0,434.0 719.0,434.0" fill="#C89355"/><line x1="820.0" y1="312.0" x2="817.3" y2="316.3" stroke="#7E5220" stroke-width="2.4" opacity=".5"/><rect x="719.0" y="312.0" width="202.0" height="122.0" fill="url(#flute)" opacity=".30"/><rect x="719.0" y="312.0" width="202.0" height="19.5" fill="#FFFFFF" opacity="0.1"/>
<rect x="0.0" y="0.0" width="1600.0" height="900.0" fill="url(#warm)" opacity="0.7"/>
<rect x="0.0" y="0.0" width="1600.0" height="900.0" fill="url(#vigx)"/>
<rect x="0.0" y="0.0" width="1600.0" height="900.0" fill="url(#vig)"/>
</svg>
