<svg xmlns="http://www.w3.org/2000/svg" viewBox="0 0 480 360" width="480" height="360" role="img" aria-label="Гофроконтейнер на поддоне">
  <title>Гофроконтейнер на поддоне</title>
  <defs>
    <linearGradient id="bgA" x1="0" y1="0" x2="1" y2="1">
      <stop offset="0" stop-color="#F6EEE1"/><stop offset="1" stop-color="#E2D2BB"/>
    </linearGradient>
    <linearGradient id="bgB" x1="0" y1="0" x2="1" y2="1">
      <stop offset="0" stop-color="#EFE7DA"/><stop offset="1" stop-color="#D8C6AC"/>
    </linearGradient>
    <pattern id="fl" width="6" height="6" patternUnits="userSpaceOnUse">
      <rect width="6" height="6" fill="none"/><rect width="2.4" height="6" fill="#000" opacity=".5"/>
    </pattern>
    <radialGradient id="lt" cx=".42" cy=".3" r=".7">
      <stop offset="0" stop-color="#FFFFFF" stop-opacity=".55"/>
      <stop offset="1" stop-color="#FFFFFF" stop-opacity="0"/>
    </radialGradient>
  </defs>
  <rect width="480" height="360" fill="url(#bgB)"/>
  <rect width="480" height="360" fill="url(#lt)"/>
<ellipse cx="252" cy="198" rx="104" ry="35" fill="#3A2A16" opacity=".17"/><polygon points="126.9,185.0 267.2,266.0 267.2,248.0 126.9,167.0" fill="#5C3F1C"/><polygon points="376.3,203.0 267.2,266.0 267.2,248.0 376.3,185.0" fill="#4A3216"/><polygon points="236.0,104.0 376.3,185.0 267.2,248.0 126.9,167.0" fill="#7A5726"/><polygon points="144.2,167.0 267.2,238.0 267.2,110.0 144.2,39.0" fill="#C08947"/><polygon points="144.2,167.0 267.2,238.0 267.2,110.0 144.2,39.0" fill="url(#fl)" opacity=".22"/><polygon points="359.0,185.0 267.2,238.0 267.2,110.0 359.0,57.0" fill="#9A6A31"/><polygon points="359.0,185.0 267.2,238.0 267.2,110.0 359.0,57.0" fill="url(#fl)" opacity=".30"/><polygon points="236.0,-14.0 359.0,57.0 267.2,110.0 144.2,39.0" fill="#E2B77E"/><line x1="297.5" y1="21.5" x2="205.7" y2="74.5" stroke="#7A4F22" stroke-width="2.4" opacity=".55"/><polygon points="273.0,135.2 282.8,140.9 282.8,12.9 273.0,7.2" fill="#F0E4CB" opacity=".7"/>
</svg>
